<?xml version="1.0" encoding="UTF-8"?>
<svg id="Layer_1" data-name="Layer 1" xmlns="http://www.w3.org/2000/svg" viewBox="0 0 216.93 159.82">
  <defs>
    <style>
      .cls-1 {
        fill: #c92876;
      }
    </style>
  </defs>
  <path style="fill: #782B78;" class="cls-1" d="M73.48,58.19c-4.16,0-7.51.74-10.06,2.23-2.55,1.49-4.57,3.29-6.05,5.43-1.49,2.14-2.49,4.48-3.03,7.03-.53,2.55-.8,4.9-.8,7.03s.27,4.48.8,7.03c.53,2.55,1.54,4.9,3.03,7.03,1.48,2.14,3.5,3.95,6.05,5.43,2.55,1.49,5.9,2.23,10.06,2.23h98.1c2.37,0,4.39.83,6.05,2.49,1.66,1.66,2.49,3.68,2.49,6.05s-.83,4.39-2.49,6.05-3.68,2.49-6.05,2.49h-103.8c-4.87,0-9.2-1.18-13-3.56-3.8-2.37-7.03-5.43-9.7-9.17-2.67-3.74-4.72-7.92-6.14-12.55-1.42-4.63-2.14-9.14-2.14-13.53s.74-9.05,2.23-13.62c1.48-4.57,3.65-8.72,6.5-12.46s6.29-6.79,10.33-9.17c4.03-2.37,8.6-3.56,13.71-3.56h102.02c2.37,0,4.39.83,6.05,2.49,1.66,1.66,2.49,3.68,2.49,6.05s-.83,4.39-2.49,6.05c-1.66,1.66-3.68,2.49-6.05,2.49h-98.1ZM170.16,73.86c1.66,1.66,2.49,3.68,2.49,6.05s-.83,4.39-2.49,6.05-3.68,2.49-6.05,2.49h-88.66c-2.38,0-4.39-.83-6.05-2.49-1.66-1.66-2.49-3.68-2.49-6.05s.83-4.39,2.49-6.05c1.66-1.66,3.68-2.49,6.05-2.49h88.66c2.37,0,4.39.83,6.05,2.49Z"/>
</svg>