<svg width="57" height="57" viewBox="0 0 57 57" fill="none" xmlns="http://www.w3.org/2000/svg">
<g clip-path="url(#clip0_104_17)">
<path d="M28.5 0C12.7609 0 0 12.7609 0 28.5C0 44.2391 12.7609 57 28.5 57C44.2391 57 57 44.2391 57 28.5C57 12.7609 44.2391 0 28.5 0ZM23.75 38H19V23.75H23.75V38ZM21.375 21.6339C19.9334 21.6339 18.7625 20.4559 18.7625 19C18.7625 17.5465 19.931 16.3661 21.375 16.3661C22.819 16.3661 23.9875 17.5465 23.9875 19C23.9875 20.4559 22.8166 21.6339 21.375 21.6339ZM40.375 38H35.6297V31.2051C35.6297 26.7377 30.875 27.1154 30.875 31.2051V38H26.125V23.75H30.875V26.3459C32.946 22.5079 40.375 22.2229 40.375 30.0224V38Z" fill="#C92875"/>
</g>
<defs>
<clipPath id="clip0_104_17">
<rect width="57" height="57" fill="white"/>
</clipPath>
</defs>
</svg>
