<?xml version="1.0" encoding="UTF-8"?>
<svg id="Layer_1" data-name="Layer 1" xmlns="http://www.w3.org/2000/svg" viewBox="0 0 212.77 159.82">
  <defs>
    <style>
      .cls-1 {
        fill: #782b78;
      }
    </style>
  </defs>
  <path class="cls-1" d="M167.55,41.15c2.37,0,4.38.83,6.05,2.49,1.66,1.66,2.49,3.68,2.49,6.04s-.77,4.18-2.31,5.78c-1.54,1.6-3.38,2.52-5.51,2.76h-35.74c-3.56.24-6.49,1.1-8.8,2.58-2.31,1.48-4.12,3.29-5.42,5.42-1.31,2.13-2.19,4.44-2.67,6.93-.48,2.49-.71,4.74-.71,6.76v30.23c0,2.37-.83,4.39-2.49,6.04-1.66,1.66-3.68,2.49-6.05,2.49s-4.39-.83-6.04-2.49c-1.66-1.66-2.49-3.67-2.49-6.04v-30.23c0-3.67.47-7.38,1.42-11.11.95-3.73,2.37-7.26,4.27-10.58h-58.32c-2.37,0-4.39-.83-6.04-2.49-1.66-1.66-2.49-3.67-2.49-6.05s.83-4.38,2.49-6.04c1.66-1.66,3.67-2.49,6.04-2.49h122.32Z"/>
</svg>